<?xml version="1.0" encoding="iso-8859-1"?>
<!-- Generator: Adobe Illustrator 16.0.0, SVG Export Plug-In . SVG Version: 6.00 Build 0)  -->
<!DOCTYPE svg PUBLIC "-//W3C//DTD SVG 1.1//EN" "http://www.w3.org/Graphics/SVG/1.1/DTD/svg11.dtd">
<svg version="1.1" id="Capa_1" xmlns="http://www.w3.org/2000/svg" xmlns:xlink="http://www.w3.org/1999/xlink" x="0px" y="0px"
	 width="21.104px" height="21.104px" viewBox="0 0 21.104 21.104" style="enable-background:new 0 0 21.104 21.104;"
	 xml:space="preserve">
<g>
	<path d="M19.101,7.129c1.246,0.432,2.543,0.141,1.773-1.442c-0.618-1.271-1.957-0.29-3.021,0.087
		C18.33,6.313,18.631,6.965,19.101,7.129z"/>
	<path d="M13.979,8.416c-0.021-0.005-0.044-0.01-0.066-0.015c-0.235-0.049-0.474-0.097-0.711-0.154
		c-0.12-0.028-0.237-0.067-0.357-0.101c-0.145-0.041-0.289-0.077-0.428-0.125c-0.153-0.056-0.295-0.129-0.439-0.197
		c-0.095-0.045-0.196-0.079-0.287-0.13c-0.227-0.132-0.438-0.287-0.625-0.476c-1.659-1.679-2.18-1.829-4.06-0.463
		C6.552,7.083,6.147,7.423,5.574,7.237C4.119,6.766,2.812,7.112,2.273,8.549c-0.609,1.625-1.676,3-2.173,4.682
		c-0.347,1.172,0.264,1.248,0.953,1.04c0.656-0.2,1.203-0.396,1.788,0.066c-0.333,0.397-0.104,0.621,0.248,0.811
		c0.335,0.139,0.182,0.979,0.873,0.606c0.401-0.002,0.716-0.151,0.893-0.53c0.254-0.081,0.638-0.084,0.615-0.425
		c-0.017-0.261-0.294-0.45-0.614-0.436c-0.199-0.104-0.397-0.209-0.597-0.312c-0.031-0.063-0.074-0.123-0.09-0.189
		c-0.004-0.018,0.065-0.064,0.107-0.08c1.64-0.55,2.629,0.839,3.747,1.485c1.237,0.715,1.746,1.391,3.055-0.152
		c1.683-1.98,4.345-2.137,6.879-2.039c0.302,0.014,0.766,0.289,0.789-0.277c0.021-0.531-0.546-0.217-0.786-0.408
		c-0.115-0.104-0.229-0.21-0.345-0.312c0.052-0.082,0.084-0.189,0.156-0.237c0.38-0.25,1.079-0.317,1.074-0.771
		c-0.006-0.601-0.633-0.288-1.008-0.351c-0.108-0.02-0.211-0.278-0.254-0.444c-0.053-0.204-0.126-0.37-0.222-0.505
		c-0.066-0.093-0.154-0.156-0.242-0.218c-0.033-0.024-0.058-0.065-0.094-0.084c-0.259-0.145-0.588-0.173-0.965-0.125
		c0.009-0.008,0.016-0.01,0.025-0.017c-0.012-0.005-0.021-0.008-0.031-0.013l0,0l0,0l0,0l0,0c-0.075-0.548,0.73-0.334,0.834-0.634
		c0.003-0.01,0.011-0.015,0.013-0.021c0.009-0.051,0.002-0.113-0.026-0.19c-0.213-0.562-0.854-0.245-1.303-0.336
		c-0.376-0.076-0.735-0.237-1.112-0.293c-0.111-0.017-0.207-0.017-0.286-0.003c-0.237,0.047-0.316,0.236-0.149,0.587
		c-0.016-0.002-0.03-0.007-0.045-0.01L13.979,8.416L13.979,8.416z"/>
</g>
<g>
</g>
<g>
</g>
<g>
</g>
<g>
</g>
<g>
</g>
<g>
</g>
<g>
</g>
<g>
</g>
<g>
</g>
<g>
</g>
<g>
</g>
<g>
</g>
<g>
</g>
<g>
</g>
<g>
</g>
</svg>
