<svg id="Capa_1" enable-background="new 0 0 512 512" height="512" viewBox="0 0 512 512" width="512" xmlns="http://www.w3.org/2000/svg"><g><path d="m79.219 432.781c3.907 3.905 10.237 3.905 14.143 0l63.64-63.64c3.905-3.905 3.905-10.237 0-14.143-3.905-3.903-10.237-3.904-14.142 0l-63.641 63.64c-3.905 3.906-3.906 10.238 0 14.143z"/><path d="m418.639 79.219-63.64 63.64c-3.905 3.905-3.905 10.237 0 14.143 3.907 3.905 10.236 3.904 14.143 0l63.64-63.64c3.905-3.905 3.905-10.237 0-14.143-3.907-3.905-10.237-3.905-14.143 0z"/><path d="m93.361 79.219c-3.905-3.904-10.237-3.904-14.143 0-3.905 3.905-3.905 10.237 0 14.143l63.641 63.64c3.906 3.905 10.237 3.904 14.142 0 3.905-3.905 3.905-10.237 0-14.143z"/><path d="m432.781 432.781c3.905-3.905 3.905-10.237 0-14.143l-63.64-63.64c-3.906-3.904-10.236-3.904-14.143 0-3.905 3.905-3.905 10.237 0 14.143l63.64 63.64c3.908 3.906 10.237 3.905 14.143 0z"/><path d="m304.161 398.407 22.96 55.43c2.096 5.058 7.917 7.541 13.066 5.412 5.103-2.114 7.525-7.964 5.412-13.066l-22.96-55.43c-2.115-5.103-7.963-7.522-13.066-5.412-5.102 2.114-7.525 7.964-5.412 13.066z"/><path d="m202.427 126.659c5.103-2.114 7.526-7.964 5.412-13.066l-22.96-55.43c-2.114-5.102-7.965-7.524-13.065-5.412-5.103 2.114-7.526 7.964-5.412 13.066l22.96 55.43c2.1 5.07 7.929 7.537 13.065 5.412z"/><path d="m113.593 304.161-55.43 22.96c-5.103 2.114-7.526 7.964-5.412 13.066 2.101 5.07 7.929 7.537 13.065 5.412l55.43-22.96c5.103-2.114 7.526-7.964 5.412-13.066-2.113-5.101-7.963-7.524-13.065-5.412z"/><path d="m453.837 184.879c5.103-2.114 7.525-7.964 5.412-13.066-2.114-5.103-7.963-7.522-13.066-5.412l-55.43 22.96c-5.103 2.114-7.525 7.964-5.412 13.066 2.096 5.058 7.917 7.541 13.066 5.412z"/><path d="m453.837 327.121-55.43-22.96c-5.103-2.108-10.952.31-13.066 5.412-2.113 5.103.31 10.952 5.412 13.066l55.43 22.96c5.154 2.131 10.972-.357 13.066-5.412 2.113-5.102-.31-10.952-5.412-13.066z"/><path d="m52.751 171.813c-2.114 5.103.31 10.952 5.412 13.066l55.43 22.96c5.142 2.127 10.967-.346 13.065-5.412 2.114-5.103-.31-10.952-5.412-13.066l-55.43-22.96c-5.1-2.11-10.951.31-13.065 5.412z"/><path d="m184.879 453.837 22.96-55.43c2.114-5.103-.31-10.952-5.412-13.066-5.102-2.109-10.951.311-13.065 5.412l-22.96 55.43c-2.114 5.103.31 10.952 5.412 13.066 5.141 2.127 10.966-.346 13.065-5.412z"/><path d="m304.161 113.593c-2.113 5.103.31 10.952 5.412 13.066 5.154 2.131 10.972-.357 13.066-5.412l22.96-55.43c2.113-5.103-.31-10.952-5.412-13.066-5.103-2.108-10.951.311-13.066 5.412z"/><path d="m266 502v-96c0-5.522-4.478-10-10-10s-10 4.478-10 10v96c0 5.522 4.478 10 10 10s10-4.478 10-10z"/><path d="m266 106v-96c0-5.522-4.478-10-10-10s-10 4.478-10 10v96c0 5.522 4.478 10 10 10s10-4.478 10-10z"/><path d="m0 256c0 5.522 4.477 10 10 10h96c5.523 0 10-4.478 10-10s-4.477-10-10-10h-96c-5.523 0-10 4.478-10 10z"/><path d="m502 246h-96c-5.522 0-10 4.478-10 10s4.478 10 10 10h96c5.522 0 10-4.478 10-10s-4.478-10-10-10z"/><circle cx="320" cy="320" r="10"/><path d="m256 356c9.448 0 18.802-1.318 27.801-3.917 5.306-1.532 8.364-7.076 6.832-12.383-1.532-5.306-7.078-8.362-12.383-6.832-7.194 2.078-14.68 3.132-22.25 3.132-44.112 0-80-35.888-80-80s35.888-80 80-80 80 35.888 80 80c0 7.57-1.054 15.056-3.132 22.25-1.532 5.307 1.526 10.851 6.832 12.383 5.309 1.53 10.851-1.527 12.383-6.832 2.599-8.999 3.917-18.353 3.917-27.801 0-55.141-44.859-100-100-100-55.14 0-100 44.859-100 100s44.86 100 100 100z"/></g></svg>